<mxfile host="app.diagrams.net" modified="2023-08-29T08:35:07.118Z" agent="Mozilla/5.0 (X11; Linux x86_64) AppleWebKit/537.36 (KHTML, like Gecko) Chrome/114.0.0.0 Safari/537.36 Edg/114.0.1823.51" etag="niHcdOFzcWarcCqUfcUh" version="21.3.6" type="github" pages="2">
  <diagram id="1NfUXGRbyNCHauA-c6Rg" name="传送带-相机">
    <mxGraphModel dx="1857" dy="1001" grid="1" gridSize="10" guides="1" tooltips="1" connect="1" arrows="1" fold="1" page="1" pageScale="1" pageWidth="827" pageHeight="1169" math="1" shadow="0">
      <root>
        <mxCell id="0" />
        <mxCell id="-tubiMW4hBpiqMgosA95-1" value="传送带" style="" parent="0" />
        <mxCell id="-tubiMW4hBpiqMgosA95-4" value="" style="shape=cube;whiteSpace=wrap;html=1;boundedLbl=1;backgroundOutline=1;darkOpacity=0.05;darkOpacity2=0.1;size=10;" parent="-tubiMW4hBpiqMgosA95-1" vertex="1">
          <mxGeometry x="220" y="210" width="30" height="210" as="geometry" />
        </mxCell>
        <mxCell id="-tubiMW4hBpiqMgosA95-2" value="" style="shape=cube;whiteSpace=wrap;html=1;boundedLbl=1;backgroundOutline=1;darkOpacity=0.05;darkOpacity2=0.1;fillColor=#008a00;strokeColor=#005700;fontColor=#ffffff;size=90;" parent="-tubiMW4hBpiqMgosA95-1" vertex="1">
          <mxGeometry x="-50" y="390" width="620" height="100" as="geometry" />
        </mxCell>
        <mxCell id="-tubiMW4hBpiqMgosA95-8" value="" style="shape=cube;whiteSpace=wrap;html=1;boundedLbl=1;backgroundOutline=1;darkOpacity=0.05;darkOpacity2=0.1;size=20;fillColor=#647687;fontColor=#ffffff;strokeColor=#314354;" parent="-tubiMW4hBpiqMgosA95-1" vertex="1">
          <mxGeometry x="231" y="250" width="75" height="60" as="geometry" />
        </mxCell>
        <mxCell id="-tubiMW4hBpiqMgosA95-11" value="" style="verticalLabelPosition=bottom;verticalAlign=top;html=1;shape=mxgraph.basic.pyramid;dx1=0.47;dx2=0.9;dy1=1;dy2=0.78;fillColor=#fff2cc;strokeColor=#d6b656;opacity=50;" parent="-tubiMW4hBpiqMgosA95-1" vertex="1">
          <mxGeometry x="180" y="310" width="210" height="130" as="geometry" />
        </mxCell>
        <mxCell id="-tubiMW4hBpiqMgosA95-3" value="" style="shape=cube;whiteSpace=wrap;html=1;boundedLbl=1;backgroundOutline=1;darkOpacity=0.05;darkOpacity2=0.1;size=10;" parent="-tubiMW4hBpiqMgosA95-1" vertex="1">
          <mxGeometry x="290" y="290" width="30" height="210" as="geometry" />
        </mxCell>
        <mxCell id="-tubiMW4hBpiqMgosA95-6" value="" style="shape=cube;whiteSpace=wrap;html=1;boundedLbl=1;backgroundOutline=1;darkOpacity=0.05;darkOpacity2=0.1;size=120;" parent="-tubiMW4hBpiqMgosA95-1" vertex="1">
          <mxGeometry x="200" y="190" width="140" height="140" as="geometry" />
        </mxCell>
        <mxCell id="-tubiMW4hBpiqMgosA95-49" value="`H/2`" style="text;html=1;strokeColor=none;fillColor=none;align=center;verticalAlign=middle;whiteSpace=wrap;rounded=0;" parent="-tubiMW4hBpiqMgosA95-1" vertex="1">
          <mxGeometry x="70" y="720" width="30" height="30" as="geometry" />
        </mxCell>
        <mxCell id="1" value="相机" parent="0" />
        <mxCell id="-tubiMW4hBpiqMgosA95-17" value="" style="shape=parallelogram;perimeter=parallelogramPerimeter;whiteSpace=wrap;html=1;fixedSize=1;fillColor=none;flipH=1;size=50.00000000000023;" parent="1" vertex="1">
          <mxGeometry x="-96" y="765" width="466" height="105" as="geometry" />
        </mxCell>
        <mxCell id="-tubiMW4hBpiqMgosA95-24" value="" style="endArrow=none;html=1;rounded=0;exitX=0.429;exitY=1.013;exitDx=0;exitDy=0;exitPerimeter=0;" parent="1" source="-tubiMW4hBpiqMgosA95-17" edge="1">
          <mxGeometry width="50" height="50" relative="1" as="geometry">
            <mxPoint x="230" y="640" as="sourcePoint" />
            <mxPoint x="140" y="660" as="targetPoint" />
          </mxGeometry>
        </mxCell>
        <mxCell id="-tubiMW4hBpiqMgosA95-25" value="" style="endArrow=none;html=1;rounded=0;exitX=0.557;exitY=0.013;exitDx=0;exitDy=0;exitPerimeter=0;" parent="1" source="-tubiMW4hBpiqMgosA95-17" edge="1">
          <mxGeometry width="50" height="50" relative="1" as="geometry">
            <mxPoint x="300" y="810" as="sourcePoint" />
            <mxPoint x="140" y="660" as="targetPoint" />
          </mxGeometry>
        </mxCell>
        <mxCell id="-tubiMW4hBpiqMgosA95-26" value="" style="endArrow=none;html=1;rounded=0;exitX=1;exitY=0.5;exitDx=0;exitDy=0;" parent="1" source="-tubiMW4hBpiqMgosA95-17" edge="1">
          <mxGeometry width="50" height="50" relative="1" as="geometry">
            <mxPoint x="195" y="880" as="sourcePoint" />
            <mxPoint x="140" y="660" as="targetPoint" />
          </mxGeometry>
        </mxCell>
        <mxCell id="-tubiMW4hBpiqMgosA95-27" value="" style="endArrow=none;html=1;rounded=0;exitX=0;exitY=0.5;exitDx=0;exitDy=0;" parent="1" source="-tubiMW4hBpiqMgosA95-17" edge="1">
          <mxGeometry width="50" height="50" relative="1" as="geometry">
            <mxPoint x="425" y="830" as="sourcePoint" />
            <mxPoint x="140" y="660" as="targetPoint" />
          </mxGeometry>
        </mxCell>
        <mxCell id="-tubiMW4hBpiqMgosA95-28" value="" style="endArrow=none;dashed=1;html=1;rounded=0;exitX=0;exitY=0.5;exitDx=0;exitDy=0;entryX=1;entryY=0.5;entryDx=0;entryDy=0;" parent="1" source="-tubiMW4hBpiqMgosA95-17" target="-tubiMW4hBpiqMgosA95-17" edge="1">
          <mxGeometry width="50" height="50" relative="1" as="geometry">
            <mxPoint x="150" y="680" as="sourcePoint" />
            <mxPoint x="200" y="630" as="targetPoint" />
          </mxGeometry>
        </mxCell>
        <mxCell id="-tubiMW4hBpiqMgosA95-30" value="" style="endArrow=none;dashed=1;html=1;rounded=0;fillColor=#fa6800;strokeColor=#C73500;" parent="1" edge="1">
          <mxGeometry width="50" height="50" relative="1" as="geometry">
            <mxPoint x="140" y="820" as="sourcePoint" />
            <mxPoint x="140" y="660" as="targetPoint" />
          </mxGeometry>
        </mxCell>
        <mxCell id="-tubiMW4hBpiqMgosA95-35" value="" style="endArrow=none;html=1;curved=1;" parent="1" edge="1">
          <mxGeometry x="-1" y="-236" width="50" height="50" relative="1" as="geometry">
            <mxPoint x="80" y="706" as="sourcePoint" />
            <mxPoint x="140" y="716" as="targetPoint" />
            <Array as="points">
              <mxPoint x="100" y="736" />
            </Array>
            <mxPoint x="-273" y="-140" as="offset" />
          </mxGeometry>
        </mxCell>
        <mxCell id="-tubiMW4hBpiqMgosA95-36" value="`H`" style="text;html=1;strokeColor=none;fillColor=none;align=center;verticalAlign=middle;whiteSpace=wrap;rounded=0;" parent="1" vertex="1">
          <mxGeometry x="250" y="410" width="30" height="30" as="geometry" />
        </mxCell>
        <mxCell id="-tubiMW4hBpiqMgosA95-37" value="" style="endArrow=none;html=1;curved=1;endSize=0;startSize=0;" parent="1" edge="1">
          <mxGeometry x="-1" y="-236" width="50" height="50" relative="1" as="geometry">
            <mxPoint x="140" y="792" as="sourcePoint" />
            <mxPoint x="160" y="792" as="targetPoint" />
            <Array as="points">
              <mxPoint x="150" y="802" />
            </Array>
            <mxPoint x="-273" y="-140" as="offset" />
          </mxGeometry>
        </mxCell>
        <mxCell id="-tubiMW4hBpiqMgosA95-38" value="`V/2`" style="text;html=1;strokeColor=none;fillColor=none;align=center;verticalAlign=middle;whiteSpace=wrap;rounded=0;" parent="1" vertex="1">
          <mxGeometry x="161" y="771" width="20" height="30" as="geometry" />
        </mxCell>
        <mxCell id="-tubiMW4hBpiqMgosA95-39" value="`h`" style="text;html=1;strokeColor=none;fillColor=none;align=center;verticalAlign=middle;whiteSpace=wrap;rounded=0;" parent="1" vertex="1">
          <mxGeometry x="330" y="780" width="30" height="30" as="geometry" />
        </mxCell>
        <mxCell id="-tubiMW4hBpiqMgosA95-40" value="`w`" style="text;html=1;strokeColor=none;fillColor=none;align=center;verticalAlign=middle;whiteSpace=wrap;rounded=0;" parent="1" vertex="1">
          <mxGeometry x="122" y="866" width="30" height="30" as="geometry" />
        </mxCell>
        <mxCell id="-tubiMW4hBpiqMgosA95-41" value="`d`" style="text;html=1;strokeColor=none;fillColor=none;align=center;verticalAlign=middle;whiteSpace=wrap;rounded=0;fontColor=#C73500;" parent="1" vertex="1">
          <mxGeometry x="117" y="735" width="30" height="30" as="geometry" />
        </mxCell>
        <mxCell id="-tubiMW4hBpiqMgosA95-46" value="" style="endArrow=none;dashed=1;html=1;rounded=0;exitX=0.552;exitY=0.011;exitDx=0;exitDy=0;entryX=0.432;entryY=0.996;entryDx=0;entryDy=0;exitPerimeter=0;entryPerimeter=0;" parent="1" source="-tubiMW4hBpiqMgosA95-17" target="-tubiMW4hBpiqMgosA95-17" edge="1">
          <mxGeometry width="50" height="50" relative="1" as="geometry">
            <mxPoint x="-60.99999999999977" y="827.5" as="sourcePoint" />
            <mxPoint x="355" y="827.5" as="targetPoint" />
          </mxGeometry>
        </mxCell>
        <mxCell id="-tubiMW4hBpiqMgosA95-47" value="" style="endArrow=none;html=1;fontColor=#C73500;startSize=0;endSize=0;rounded=0;" parent="1" edge="1">
          <mxGeometry width="50" height="50" relative="1" as="geometry">
            <mxPoint x="130" y="817" as="sourcePoint" />
            <mxPoint x="140" y="807" as="targetPoint" />
            <Array as="points">
              <mxPoint x="130" y="807" />
            </Array>
          </mxGeometry>
        </mxCell>
        <mxCell id="-tubiMW4hBpiqMgosA95-48" value="相机" style="text;html=1;strokeColor=none;fillColor=none;align=center;verticalAlign=middle;whiteSpace=wrap;rounded=0;fontColor=#000000;" parent="1" vertex="1">
          <mxGeometry x="280" y="240" width="60" height="30" as="geometry" />
        </mxCell>
      </root>
    </mxGraphModel>
  </diagram>
  <diagram id="XuQnnng7b7wH7JDiEtgx" name="第 2 页">
    <mxGraphModel dx="1119" dy="1095" grid="1" gridSize="10" guides="1" tooltips="1" connect="1" arrows="1" fold="1" page="1" pageScale="1" pageWidth="827" pageHeight="1169" math="0" shadow="0">
      <root>
        <mxCell id="0" />
        <mxCell id="1" value="模块" parent="0" />
        <mxCell id="SmqsWfbFAaSB6eGqA43s-4" value="aruco_detect" style="text;html=1;strokeColor=none;fillColor=none;align=center;verticalAlign=middle;whiteSpace=wrap;rounded=0;fontSize=20;" vertex="1" parent="1">
          <mxGeometry x="60" y="670" width="130" height="30" as="geometry" />
        </mxCell>
        <mxCell id="SmqsWfbFAaSB6eGqA43s-6" value="&lt;h1&gt;&lt;span style=&quot;background-color: initial;&quot;&gt;imageCallback&lt;/span&gt;&lt;/h1&gt;&lt;div style=&quot;font-size: 20px;&quot;&gt;&lt;ul&gt;&lt;li&gt;marker detection&lt;/li&gt;&lt;li&gt;pose estimation&lt;/li&gt;&lt;/ul&gt;&lt;/div&gt;" style="text;html=1;strokeColor=default;fillColor=none;spacing=5;spacingTop=-20;whiteSpace=wrap;overflow=hidden;rounded=0;" vertex="1" parent="1">
          <mxGeometry x="30" y="480" width="240" height="130" as="geometry" />
        </mxCell>
        <mxCell id="SmqsWfbFAaSB6eGqA43s-7" value="&lt;h1 style=&quot;font-size: 16px;&quot;&gt;fiducial_msgs/FiducialTransform []&lt;/h1&gt;&lt;div style=&quot;font-size: 16px;&quot;&gt;&lt;ul style=&quot;font-size: 16px;&quot;&gt;&lt;li style=&quot;font-size: 16px;&quot;&gt;marker_id&lt;/li&gt;&lt;li style=&quot;font-size: 16px;&quot;&gt;transform&lt;/li&gt;&lt;li style=&quot;font-size: 16px;&quot;&gt;image_error (reprojection error)&lt;/li&gt;&lt;li style=&quot;font-size: 16px;&quot;&gt;object_error&lt;/li&gt;&lt;/ul&gt;&lt;/div&gt;" style="text;html=1;strokeColor=default;fillColor=none;spacing=5;spacingTop=-20;whiteSpace=wrap;overflow=hidden;rounded=0;dashed=1;fontSize=16;" vertex="1" parent="1">
          <mxGeometry x="300" y="320" width="280" height="130" as="geometry" />
        </mxCell>
        <mxCell id="SmqsWfbFAaSB6eGqA43s-8" value="&lt;h1 style=&quot;font-size: 16px;&quot;&gt;TF (geometry_msgs/TransformStamped)&lt;/h1&gt;&lt;div style=&quot;font-size: 16px;&quot;&gt;&lt;ul style=&quot;font-size: 16px;&quot;&gt;&lt;li style=&quot;font-size: 16px;&quot;&gt;timestamp&lt;/li&gt;&lt;li style=&quot;font-size: 16px;&quot;&gt;transform&lt;/li&gt;&lt;/ul&gt;&lt;/div&gt;" style="text;html=1;strokeColor=default;fillColor=none;spacing=5;spacingTop=-20;whiteSpace=wrap;overflow=hidden;rounded=0;dashed=1;fontSize=16;" vertex="1" parent="1">
          <mxGeometry x="300" y="480" width="340" height="80" as="geometry" />
        </mxCell>
        <mxCell id="SmqsWfbFAaSB6eGqA43s-9" value="&lt;h1 style=&quot;font-size: 16px;&quot;&gt;TF (geometry_msgs/TransformStamped)&lt;/h1&gt;&lt;div style=&quot;font-size: 16px;&quot;&gt;&lt;ul style=&quot;font-size: 16px;&quot;&gt;&lt;li style=&quot;font-size: 16px;&quot;&gt;timestamp&lt;/li&gt;&lt;li style=&quot;font-size: 16px;&quot;&gt;transform&lt;/li&gt;&lt;/ul&gt;&lt;/div&gt;" style="text;html=1;strokeColor=default;fillColor=none;spacing=5;spacingTop=-20;whiteSpace=wrap;overflow=hidden;rounded=0;dashed=1;fontSize=16;" vertex="1" parent="1">
          <mxGeometry x="300" y="590" width="340" height="80" as="geometry" />
        </mxCell>
        <mxCell id="SmqsWfbFAaSB6eGqA43s-10" value="&lt;h1 style=&quot;font-size: 16px;&quot;&gt;image (sensor_msgs/image)&lt;/h1&gt;&lt;div style=&quot;font-size: 16px;&quot;&gt;&lt;ul style=&quot;font-size: 16px;&quot;&gt;&lt;li style=&quot;font-size: 16px;&quot;&gt;timestamp&lt;/li&gt;&lt;li style=&quot;font-size: 16px;&quot;&gt;transform&lt;/li&gt;&lt;/ul&gt;&lt;/div&gt;" style="text;html=1;strokeColor=default;fillColor=none;spacing=5;spacingTop=-20;whiteSpace=wrap;overflow=hidden;rounded=0;dashed=1;fontSize=16;" vertex="1" parent="1">
          <mxGeometry x="300" y="710" width="340" height="80" as="geometry" />
        </mxCell>
        <mxCell id="SmqsWfbFAaSB6eGqA43s-1" value="流程" style="locked=1;" parent="0" />
      </root>
    </mxGraphModel>
  </diagram>
</mxfile>
